<?xml version="1.0" encoding="UTF-8" standalone="no"?>
<svg
   id="Layer_1"
   data-name="Layer 1"
   viewBox="0 0 4197.28 633.01"
   version="1.1"
   sodipodi:docname="banner.svg"
   inkscape:version="1.4.2 (ebf0e940, 2025-05-08)"
   xmlns:inkscape="http://www.inkscape.org/namespaces/inkscape"
   xmlns:sodipodi="http://sodipodi.sourceforge.net/DTD/sodipodi-0.dtd"
   xmlns="http://www.w3.org/2000/svg"
   xmlns:svg="http://www.w3.org/2000/svg">
  <sodipodi:namedview
     id="namedview24"
     pagecolor="#ffffff"
     bordercolor="#000000"
     borderopacity="0.25"
     inkscape:showpageshadow="2"
     inkscape:pageopacity="0.0"
     inkscape:pagecheckerboard="0"
     inkscape:deskcolor="#d1d1d1"
     inkscape:zoom="0.39644724"
     inkscape:cx="3300.5653"
     inkscape:cy="735.28069"
     inkscape:window-width="1824"
     inkscape:window-height="1058"
     inkscape:window-x="1240"
     inkscape:window-y="410"
     inkscape:window-maximized="0"
     inkscape:current-layer="Layer_1" />
  <defs
     id="defs1">
    <style
       id="style1">
      .cls-1 {
        fill: #30ba78;
      }

      .cls-1, .cls-2, .cls-3, .cls-4, .cls-5, .cls-6, .cls-7, .cls-8, .cls-9, .cls-10, .cls-11, .cls-12, .cls-13 {
        stroke: #0a112b;
        stroke-linejoin: round;
      }

      .cls-1, .cls-2, .cls-3, .cls-4, .cls-6, .cls-7, .cls-9, .cls-10, .cls-11, .cls-12, .cls-13 {
        stroke-width: 4px;
      }

      .cls-2 {
        fill: #efefef;
      }

      .cls-14, .cls-13 {
        fill: #0b41b7;
      }

      .cls-3 {
        fill: #fff;
      }

      .cls-4 {
        fill: #c8dafc;
      }

      .cls-5 {
        fill: #81aefc;
        stroke-width: 4.18px;
      }

      .cls-6 {
        fill: #e6edfe;
      }

      .cls-7, .cls-8 {
        fill: #3c8eef;
      }

      .cls-8 {
        stroke-width: 4.13px;
      }

      .cls-9 {
        fill: none;
      }

      .cls-10 {
        fill: #30ba78;
      }

      .cls-11 {
        fill: #2453ff;
      }

      .cls-12 {
        fill: #2453ff;
      }

      .cls-15 {
        clip-path: url(#clippath);
      }
    </style>
    <clipPath
       clipPathUnits="userSpaceOnUse"
       id="clipPath24">
      <polygon
         class="cls-13"
         points="3014.12,629.34 3453.78,629.42 3490.41,409.59 3233.95,372.95 2977.48,409.59 "
         id="polygon25" />
    </clipPath>
    <clipPath
       clipPathUnits="userSpaceOnUse"
       id="clipPath25">
      <polygon
         class="cls-13"
         points="3014.12,629.34 3453.78,629.42 3490.41,409.59 3233.95,372.95 2977.48,409.59 "
         id="polygon26" />
    </clipPath>
  </defs>
  <polygon
     class="cls-5"
     points="1768.5 647.07 4294.04 648.11 4294.04 -15.1 1768.5 -15.1 1768.5 647.07"
     id="polygon2"
     style="fill:#2453ff;fill-opacity:1" />
  <path
     class="cls-4"
     d="M3796.07,600.31c0,9.76-.25,19.47-.74,29.11h-1122.76c-.49-9.64-.74-19.35-.74-29.11,0-310.45,251.67-562.13,562.12-562.13s562.12,251.68,562.12,562.13Z"
     id="path2"
     style="fill:#3c8eef;fill-opacity:1" />
  <rect
     class="cls-2"
     x="3087.6299"
     y="189.75999"
     width="292.87"
     height="256.47"
     id="rect2" />
  <g
     id="g8">
    <line
       class="cls-9"
       x1="3124.03"
       y1="226.39999"
       x2="3124.03"
       y2="208.14"
       id="line2" />
    <line
       class="cls-9"
       x1="3160.6699"
       y1="226.39999"
       x2="3160.6699"
       y2="208.14"
       id="line3" />
    <line
       class="cls-9"
       x1="3197.3101"
       y1="226.39999"
       x2="3197.3101"
       y2="208.14"
       id="line4" />
    <line
       class="cls-9"
       x1="3233.95"
       y1="226.39999"
       x2="3233.95"
       y2="208.14"
       id="line5" />
    <line
       class="cls-9"
       x1="3270.5901"
       y1="226.39999"
       x2="3270.5901"
       y2="208.14"
       id="line6" />
    <line
       class="cls-9"
       x1="3307.22"
       y1="226.39999"
       x2="3307.22"
       y2="208.14"
       id="line7" />
    <line
       class="cls-9"
       x1="3343.8601"
       y1="226.39999"
       x2="3343.8601"
       y2="208.14"
       id="line8" />
  </g>
  <rect
     class="cls-6"
     x="3050.76"
     y="134.81"
     width="366.38"
     height="54.959999"
     id="rect8" />
  <rect
     class="cls-11"
     x="3050.76"
     y="153.09"
     width="366.38"
     height="18.32"
     id="rect9" />
  <rect
     class="cls-6"
     x="3124.03"
     y="116.49"
     width="219.83"
     height="18.32"
     id="rect10" />
  <rect
     class="cls-11"
     x="3014.1201"
     y="354.64001"
     width="109.91"
     height="54.959999"
     id="rect11"
     style="fill:#3c8eef;fill-opacity:1" />
  <rect
     class="cls-10"
     x="3124.03"
     y="354.64001"
     width="109.91"
     height="54.959999"
     id="rect12" />
  <rect
     class="cls-10"
     x="3233.95"
     y="354.64001"
     width="109.91"
     height="54.959999"
     id="rect13" />
  <rect
     class="cls-3"
     x="3343.8701"
     y="354.64001"
     width="109.91"
     height="54.959999"
     id="rect14" />
  <rect
     class="cls-10"
     x="3014.1201"
     y="299.67999"
     width="109.91"
     height="54.959999"
     id="rect15" />
  <rect
     class="cls-3"
     x="3124.03"
     y="299.67999"
     width="109.91"
     height="54.959999"
     id="rect16" />
  <rect
     class="cls-11"
     x="3233.95"
     y="299.67999"
     width="109.91"
     height="54.959999"
     id="rect17"
     style="fill:#3c8eef;fill-opacity:1" />
  <rect
     class="cls-1"
     x="3343.8701"
     y="299.67999"
     width="109.91"
     height="54.959999"
     id="rect18" />
  <rect
     class="cls-11"
     x="3124.03"
     y="244.72"
     width="109.91"
     height="54.959999"
     id="rect19"
     style="fill:#3c8eef;fill-opacity:1" />
  <rect
     class="cls-10"
     x="3233.95"
     y="244.72"
     width="109.91"
     height="54.959999"
     id="rect20" />
  <polygon
     class="cls-14"
     points="3453.78,629.42 3490.41,409.59 3233.95,372.95 2977.48,409.59 3014.12,629.34 "
     id="polygon20"
     style="fill:#192072;fill-opacity:1" />
  <rect
     class="cls-6"
     x="3234.29"
     y="372.95001"
     width="256.13"
     height="256.42999"
     id="rect21"
     clip-path="url(#clipPath25)"
     style="fill:#c8dafc;fill-opacity:1" />
  <circle
     class="cls-13"
     cx="3234.0601"
     cy="427.91"
     r="18.32"
     id="circle21"
     clip-path="url(#clipPath24)"
     style="fill:#192072;fill-opacity:1" />
  <polygon
     class="cls-9"
     points="3453.78,629.42 3490.41,409.59 3233.95,372.95 2977.48,409.59 3014.12,629.34 "
     id="polygon21" />
  <path
     class="cls-12"
     d="M4217.67,589.68v57.39h-2098.64v-55.9c.41.17.82.33,1.24.48.13.04.26.09.39.13.32.12.65.23.99.32.38.13.76.24,1.15.34.36.1.72.2,1.08.28.05.02.1.03.15.04.46.11.93.2,1.4.29.45.09.9.16,1.35.23.12.02.24.03.36.05.42.06.85.11,1.28.15.04,0,.08.01.13.01.5.05,1.01.08,1.52.11h.07c.53.03,1.07.04,1.61.04,8.63,0,16.51-3.22,22.5-8.53,5.99,5.31,13.87,8.53,22.5,8.53s16.51-3.22,22.5-8.53c5.99,5.31,13.87,8.53,22.5,8.53s16.51-3.22,22.5-8.53c5.99,5.31,13.87,8.53,22.5,8.53s16.51-3.22,22.5-8.53c5.99,5.31,13.87,8.53,22.5,8.53s16.51-3.22,22.5-8.53c5.99,5.31,13.87,8.53,22.5,8.53s16.51-3.22,22.5-8.53c5.99,5.31,13.87,8.53,22.5,8.53s16.51-3.22,22.5-8.53c5.99,5.31,13.87,8.53,22.5,8.53s16.51-3.22,22.5-8.53c5.99,5.31,13.87,8.53,22.5,8.53s16.51-3.22,22.5-8.53c5.99,5.31,13.87,8.53,22.5,8.53s16.51-3.22,22.5-8.53c5.99,5.31,13.87,8.53,22.5,8.53s16.51-3.22,22.5-8.53c5.99,5.31,13.87,8.53,22.5,8.53s16.51-3.22,22.5-8.53c5.99,5.31,13.87,8.53,22.5,8.53s16.51-3.22,22.5-8.53c5.99,5.31,13.87,8.53,22.5,8.53s16.51-3.22,22.5-8.53c5.99,5.31,13.87,8.53,22.5,8.53s16.51-3.22,22.5-8.53c5.99,5.31,13.87,8.53,22.5,8.53s16.51-3.22,22.5-8.53c5.99,5.31,13.87,8.53,22.5,8.53s16.51-3.22,22.5-8.53c5.99,5.31,13.87,8.53,22.5,8.53s16.51-3.22,22.5-8.53c5.99,5.31,13.87,8.53,22.5,8.53s16.51-3.22,22.5-8.53c5.99,5.31,13.87,8.53,22.5,8.53s16.51-3.22,22.5-8.53c5.99,5.31,13.87,8.53,22.5,8.53s16.51-3.22,22.5-8.53c5.99,5.31,13.87,8.53,22.5,8.53s16.51-3.22,22.5-8.53c5.99,5.31,13.87,8.53,22.5,8.53s16.51-3.22,22.5-8.53c5.99,5.31,13.87,8.53,22.5,8.53s16.51-3.22,22.5-8.53c5.99,5.31,13.87,8.53,22.5,8.53s16.51-3.22,22.5-8.53c5.99,5.31,13.87,8.53,22.5,8.53s16.51-3.22,22.5-8.53c5.99,5.31,13.87,8.53,22.5,8.53s16.51-3.22,22.5-8.53c5.99,5.31,13.87,8.53,22.5,8.53s16.51-3.22,22.5-8.53c5.99,5.31,13.87,8.53,22.5,8.53s16.51-3.22,22.5-8.53c5.99,5.31,13.87,8.53,22.5,8.53s16.51-3.22,22.5-8.53c5.99,5.31,13.87,8.53,22.5,8.53s16.51-3.22,22.5-8.53c5.99,5.31,13.87,8.53,22.5,8.53s16.51-3.22,22.5-8.53c5.99,5.31,13.87,8.53,22.5,8.53s16.51-3.22,22.5-8.53c5.99,5.31,13.87,8.53,22.5,8.53s16.51-3.22,22.5-8.53c5.99,5.31,13.87,8.53,22.5,8.53s16.51-3.22,22.5-8.53c5.99,5.31,13.87,8.53,22.5,8.53s16.51-3.22,22.5-8.53c5.99,5.31,13.87,8.53,22.5,8.53s16.51-3.22,22.5-8.53c5.99,5.31,13.87,8.53,22.5,8.53s16.51-3.22,22.5-8.53c5.99,5.31,13.87,8.53,22.5,8.53s16.51-3.22,22.5-8.53c5.99,5.31,13.87,8.53,22.5,8.53s16.51-3.22,22.5-8.53c5.99,5.31,13.87,8.53,22.5,8.53s16.51-3.22,22.5-8.53c5.99,5.31,13.87,8.53,22.5,8.53s16.51-3.22,22.5-8.53c5.99,5.31,13.87,8.53,22.5,8.53s16.51-3.22,22.5-8.53c5.99,5.31,13.87,8.53,22.5,8.53s16.51-3.22,22.5-8.53c5.99,5.31,13.87,8.53,22.5,8.53s16.51-3.22,22.5-8.53c5.99,5.31,13.87,8.53,22.5,8.53s16.51-3.22,22.5-8.53c5.99,5.31,13.87,8.53,22.5,8.53,5.75,0,11.17-1.43,15.92-3.96Z"
     id="path23"
     style="fill:#0b41b7;fill-opacity:1" />
  <path
     class="cls-7"
     d="M4217.67,545.26v44.42c-4.75,2.53-10.17,3.96-15.92,3.96-8.63,0-16.51-3.22-22.5-8.53-5.99,5.31-13.87,8.53-22.5,8.53s-16.51-3.22-22.5-8.53c-5.99,5.31-13.87,8.53-22.5,8.53s-16.51-3.22-22.5-8.53c-5.99,5.31-13.87,8.53-22.5,8.53s-16.51-3.22-22.5-8.53c-5.99,5.31-13.87,8.53-22.5,8.53s-16.51-3.22-22.5-8.53c-5.99,5.31-13.87,8.53-22.5,8.53s-16.51-3.22-22.5-8.53c-5.99,5.31-13.87,8.53-22.5,8.53s-16.51-3.22-22.5-8.53c-5.99,5.31-13.87,8.53-22.5,8.53s-16.51-3.22-22.5-8.53c-5.99,5.31-13.87,8.53-22.5,8.53s-16.51-3.22-22.5-8.53c-5.99,5.31-13.87,8.53-22.5,8.53s-16.51-3.22-22.5-8.53c-5.99,5.31-13.87,8.53-22.5,8.53s-16.51-3.22-22.5-8.53c-5.99,5.31-13.87,8.53-22.5,8.53s-16.51-3.22-22.5-8.53c-5.99,5.31-13.87,8.53-22.5,8.53s-16.51-3.22-22.5-8.53c-5.99,5.31-13.87,8.53-22.5,8.53s-16.51-3.22-22.5-8.53c-5.99,5.31-13.87,8.53-22.5,8.53s-16.51-3.22-22.5-8.53c-5.99,5.31-13.87,8.53-22.5,8.53s-16.51-3.22-22.5-8.53c-5.99,5.31-13.87,8.53-22.5,8.53s-16.51-3.22-22.5-8.53c-5.99,5.31-13.87,8.53-22.5,8.53s-16.51-3.22-22.5-8.53c-5.99,5.31-13.87,8.53-22.5,8.53s-16.51-3.22-22.5-8.53c-5.99,5.31-13.87,8.53-22.5,8.53s-16.51-3.22-22.5-8.53c-5.99,5.31-13.87,8.53-22.5,8.53s-16.51-3.22-22.5-8.53c-5.99,5.31-13.87,8.53-22.5,8.53s-16.51-3.22-22.5-8.53c-5.99,5.31-13.87,8.53-22.5,8.53s-16.51-3.22-22.5-8.53c-5.99,5.31-13.87,8.53-22.5,8.53s-16.51-3.22-22.5-8.53c-5.99,5.31-13.87,8.53-22.5,8.53s-16.51-3.22-22.5-8.53c-5.99,5.31-13.87,8.53-22.5,8.53s-16.51-3.22-22.5-8.53c-5.99,5.31-13.87,8.53-22.5,8.53s-16.51-3.22-22.5-8.53c-5.99,5.31-13.87,8.53-22.5,8.53s-16.51-3.22-22.5-8.53c-5.99,5.31-13.87,8.53-22.5,8.53s-16.51-3.22-22.5-8.53c-5.99,5.31-13.87,8.53-22.5,8.53s-16.51-3.22-22.5-8.53c-5.99,5.31-13.87,8.53-22.5,8.53s-16.51-3.22-22.5-8.53c-5.99,5.31-13.87,8.53-22.5,8.53s-16.51-3.22-22.5-8.53c-5.99,5.31-13.87,8.53-22.5,8.53s-16.51-3.22-22.5-8.53c-5.99,5.31-13.87,8.53-22.5,8.53s-16.51-3.22-22.5-8.53c-5.99,5.31-13.87,8.53-22.5,8.53s-16.51-3.22-22.5-8.53c-5.99,5.31-13.87,8.53-22.5,8.53s-16.51-3.22-22.5-8.53c-5.99,5.31-13.87,8.53-22.5,8.53s-16.51-3.22-22.5-8.53c-5.99,5.31-13.87,8.53-22.5,8.53s-16.51-3.22-22.5-8.53c-5.99,5.31-13.87,8.53-22.5,8.53s-16.51-3.22-22.5-8.53c-5.99,5.31-13.87,8.53-22.5,8.53s-16.51-3.22-22.5-8.53c-5.99,5.31-13.87,8.53-22.5,8.53s-16.51-3.22-22.5-8.53c-5.99,5.31-13.87,8.53-22.5,8.53s-16.51-3.22-22.5-8.53c-5.99,5.31-13.87,8.53-22.5,8.53s-16.51-3.22-22.5-8.53c-5.99,5.31-13.87,8.53-22.5,8.53s-16.51-3.22-22.5-8.53c-5.99,5.31-13.87,8.53-22.5,8.53s-16.51-3.22-22.5-8.53c-5.99,5.31-13.87,8.53-22.5,8.53s-16.51-3.22-22.5-8.53c-5.99,5.31-13.87,8.53-22.5,8.53-.54,0-1.08-.01-1.61-.04h-.07c-.51-.03-1.02-.06-1.52-.11-.05,0-.09-.01-.13-.01-.43-.04-.86-.09-1.28-.15-.12-.02-.24-.03-.36-.05-.45-.07-.9-.14-1.35-.23-.47-.09-.94-.18-1.4-.29-.05-.01-.1-.02-.15-.04-.36-.08-.72-.18-1.08-.28-.39-.1-.77-.21-1.15-.34-.34-.09-.67-.2-.99-.32-.13-.04-.26-.09-.39-.13-.42-.15-.83-.31-1.24-.48v-44.42c3.93,1.6,8.22,2.47,12.72,2.47,8.63,0,16.51-3.22,22.5-8.53,5.99,5.31,13.87,8.53,22.5,8.53s16.51-3.22,22.5-8.53c5.99,5.31,13.87,8.53,22.5,8.53s16.51-3.22,22.5-8.53c5.99,5.31,13.87,8.53,22.5,8.53s16.51-3.22,22.5-8.53c5.99,5.31,13.87,8.53,22.5,8.53s16.51-3.22,22.5-8.53c5.99,5.31,13.87,8.53,22.5,8.53s16.51-3.22,22.5-8.53c5.99,5.31,13.87,8.53,22.5,8.53s16.51-3.22,22.5-8.53c5.99,5.31,13.87,8.53,22.5,8.53s16.51-3.22,22.5-8.53c5.99,5.31,13.87,8.53,22.5,8.53s16.51-3.22,22.5-8.53c5.99,5.31,13.87,8.53,22.5,8.53s16.51-3.22,22.5-8.53c5.99,5.31,13.87,8.53,22.5,8.53s16.51-3.22,22.5-8.53c5.99,5.31,13.87,8.53,22.5,8.53s16.51-3.22,22.5-8.53c5.99,5.31,13.87,8.53,22.5,8.53s16.51-3.22,22.5-8.53c5.99,5.31,13.87,8.53,22.5,8.53s16.51-3.22,22.5-8.53c5.99,5.31,13.87,8.53,22.5,8.53s16.51-3.22,22.5-8.53c5.99,5.31,13.87,8.53,22.5,8.53s16.51-3.22,22.5-8.53c5.99,5.31,13.87,8.53,22.5,8.53s16.51-3.22,22.5-8.53c5.99,5.31,13.87,8.53,22.5,8.53s16.51-3.22,22.5-8.53c5.99,5.31,13.87,8.53,22.5,8.53s16.51-3.22,22.5-8.53c5.99,5.31,13.87,8.53,22.5,8.53s16.51-3.22,22.5-8.53c5.99,5.31,13.87,8.53,22.5,8.53s16.51-3.22,22.5-8.53c5.99,5.31,13.87,8.53,22.5,8.53s16.51-3.22,22.5-8.53c5.99,5.31,13.87,8.53,22.5,8.53s16.51-3.22,22.5-8.53c5.99,5.31,13.87,8.53,22.5,8.53s16.51-3.22,22.5-8.53c5.99,5.31,13.87,8.53,22.5,8.53s16.51-3.22,22.5-8.53c5.99,5.31,13.87,8.53,22.5,8.53s16.51-3.22,22.5-8.53c5.99,5.31,13.87,8.53,22.5,8.53s16.51-3.22,22.5-8.53c5.99,5.31,13.87,8.53,22.5,8.53s16.51-3.22,22.5-8.53c5.99,5.31,13.87,8.53,22.5,8.53s16.51-3.22,22.5-8.53c5.99,5.31,13.87,8.53,22.5,8.53s16.51-3.22,22.5-8.53c5.99,5.31,13.87,8.53,22.5,8.53s16.51-3.22,22.5-8.53c5.99,5.31,13.87,8.53,22.5,8.53s16.51-3.22,22.5-8.53c5.99,5.31,13.87,8.53,22.5,8.53s16.51-3.22,22.5-8.53c5.99,5.31,13.87,8.53,22.5,8.53s16.51-3.22,22.5-8.53c5.99,5.31,13.87,8.53,22.5,8.53s16.51-3.22,22.5-8.53c5.99,5.31,13.87,8.53,22.5,8.53s16.51-3.22,22.5-8.53c5.99,5.31,13.87,8.53,22.5,8.53s16.51-3.22,22.5-8.53c5.99,5.31,13.87,8.53,22.5,8.53s16.51-3.22,22.5-8.53c5.99,5.31,13.87,8.53,22.5,8.53s16.51-3.22,22.5-8.53c5.99,5.31,13.87,8.53,22.5,8.53s16.51-3.22,22.5-8.53c5.99,5.31,13.87,8.53,22.5,8.53s16.51-3.22,22.5-8.53c5.99,5.31,13.87,8.53,22.5,8.53s16.51-3.22,22.5-8.53c5.99,5.31,13.87,8.53,22.5,8.53s16.51-3.22,22.5-8.53c5.99,5.31,13.87,8.53,22.5,8.53s16.51-3.22,22.5-8.53c5.99,5.31,13.87,8.53,22.5,8.53s16.51-3.22,22.5-8.53c5.99,5.31,13.87,8.53,22.5,8.53s16.51-3.22,22.5-8.53c5.99,5.31,13.87,8.53,22.5,8.53,5.75,0,11.17-1.43,15.92-3.96Z"
     id="path24"
     style="fill:#81aefc;fill-opacity:1" />
  <polygon
     class="cls-8"
     points="1782.15 -13.63 -96.36 -13.63 -99.17 647.07 2417.11 647.07 1782.15 -13.63"
     id="polygon24"
     style="fill:#008657;fill-opacity:1" />
</svg>
