<svg version="1.1" id="Layer_1" xmlns="http://www.w3.org/2000/svg" x="0" y="0" viewBox="0 0 4197.284 633.007" style="enable-background:new 0 0 4197.2836914 633.0073853" xml:space="preserve"><style>.st1{fill:#8dc63f}.st2{fill:#6ba939}.st4{fill:#594a41}.st5{fill:#dbe13a}.st6{fill:#bbd644}.st7{fill:#abc53e}.st8{fill:#34495e}</style><path style="fill:#2c3e50" d="M0 0h4197.284v633.007H0z"/><path id="path598" class="st1" d="M3443.884 580.007c-175.2-106.2-400.3-170.1-645.9-170.1-284.2 0-541 85.5-724.6 223.1h1370.5v-53z"/><path id="path600" class="st2" d="M2780.084 473.907c0 22.9-18.6 41.5-41.5 41.5s-41.5-18.6-41.5-41.5 18.6-41.5 41.5-41.5c23 0 41.5 18.6 41.5 41.5z"/><path id="path602" d="M2780.084 473.907c0-22.9-18.6-41.5-41.5-41.5v82.9c23 0 41.5-18.5 41.5-41.4z" style="fill:#5c9531"/><path id="path604" class="st4" d="M2738.684 540.007c-1.1 0-2.1-.9-2.1-2.1v-58c0-1.1.9-2.1 2.1-2.1 1.1 0 2.1.9 2.1 2.1v58c0 1.2-1 2.1-2.1 2.1z"/><path id="path606" class="st4" d="M2738.684 503.107c-.5 0-1.1-.2-1.5-.6-.8-.8-.8-2.1 0-2.9l8.6-8.6c.8-.8 2.1-.8 2.9 0s.8 2.1 0 2.9l-8.6 8.6c-.4.4-.9.6-1.4.6z"/><path id="path608" class="st4" d="M2738.684 495.607c-.5 0-1.1-.2-1.5-.6l-11.5-11.5c-.8-.8-.8-2.1 0-2.9.8-.8 2.1-.8 2.9 0l11.5 11.5c.8.8.8 2.1 0 2.9-.4.4-.9.6-1.4.6z"/><path id="path610" class="st5" d="M2386.884 506.107c0-26-7.4-56.1-22.4-56.1s-22.4 30.1-22.4 56.1c0 9.5 7.4 17.2 22.4 17.2 15 .1 22.4-7.6 22.4-17.2z"/><path id="path612" class="st6" d="M2386.884 506.107c0-26-7.4-56.1-22.4-56.1v73.3c15 .1 22.4-7.6 22.4-17.2z"/><path id="path614" class="st4" d="M2364.484 550.407c-1.1 0-2.1-.9-2.1-2.1v-64.2c0-1.1.9-2.1 2.1-2.1 1.1 0 2.1.9 2.1 2.1v64.2c0 1.2-.9 2.1-2.1 2.1z"/><path id="path616" class="st4" d="M2364.484 509.707c-.5 0-1.1-.2-1.5-.6l-9.5-9.5c-.8-.8-.8-2.1 0-2.9s2.1-.8 2.9 0l9.5 9.5c.8.8.8 2.1 0 2.9-.3.4-.8.6-1.4.6z"/><path id="path618" class="st4" d="M2364.484 501.307c-.5 0-1.1-.2-1.5-.6-.8-.8-.8-2.1 0-2.9l12.7-12.7c.8-.8 2.1-.8 2.9 0s.8 2.1 0 2.9l-12.7 12.7c-.3.4-.8.6-1.4.6z"/><path id="path620" class="st6" d="M3489.784 322.407c-301.4 0-562.2 126.5-688 310.6h1395.5c-125.9-184.1-386.7-310.6-688.3-310.6-3.2 0-6.4.1-9.6.1-3.2-.1-6.4-.1-9.6-.1z"/><g id="g642" transform="translate(0 150.907)"><path id="path622" class="st7" d="M3340.784 335.4c0-9-7.3-16.3-16.3-16.3s-16.3 7.3-16.3 16.3 7.3 16.3 16.3 16.3 16.3-7.3 16.3-16.3z"/><path id="path624" class="st7" d="M3475.184 270.2c0-9-7.3-16.3-16.3-16.3s-16.3 7.3-16.3 16.3 7.3 16.3 16.3 16.3 16.3-7.3 16.3-16.3z"/><path id="path626" class="st7" d="M3298.784 384.3c-9 0-16.3 7.3-16.3 16.3s7.3 16.3 16.3 16.3h97.1c9 0 16.3 7.3 16.3 16.3s-7.3 16.3-16.3 16.3h-21.4c-9 0-16.3 7.3-16.3 16.3s7.3 16.3 16.3 16.3h341.5c9 0 16.3-7.3 16.3-16.3s-7.3-16.3-16.3-16.3h-56.7c-9 0-16.3-7.3-16.3-16.3s7.3-16.3 16.3-16.3h110c9 0 16.3-7.3 16.3-16.3s-7.3-16.3-16.3-16.3h-68.6c-9 0-16.3-7.3-16.3-16.3s7.3-16.3 16.3-16.3h104.3c9 0 16.3-7.3 16.3-16.3s-7.3-16.3-16.3-16.3h-57.1c-9 0-16.3-7.3-16.3-16.3s7.3-16.3 16.3-16.3h21.4c9 0 16.3-7.3 16.3-16.3s-7.3-16.3-16.3-16.3h-261.5c-9 0-16.3 7.3-16.3 16.3s7.3 16.3 16.3 16.3h56.7c9 0 16.3 7.3 16.3 16.3s-7.3 16.3-16.3 16.3h-190c-9 0-16.3 7.3-16.3 16.3s7.3 16.3 16.3 16.3h68.6c9 0 16.3 7.3 16.3 16.3s-7.3 16.3-16.3 16.3h-144.3z"/><path id="path628" class="st7" d="M3802.984 400.6c0 9 7.3 16.3 16.3 16.3s16.3-7.3 16.3-16.3-7.3-16.3-16.3-16.3-16.3 7.3-16.3 16.3z"/><path id="path630" class="st7" d="M3748.584 465.8c0 9 7.3 16.3 16.3 16.3s16.3-7.3 16.3-16.3-7.3-16.3-16.3-16.3-16.3 7.3-16.3 16.3z"/></g><path id="path654" class="st1" d="M3159.284 303.907c25.6 0 46.4 20.7 46.4 46.4 0 25.6-20.7 46.4-46.4 46.4-25.6 0-46.4-20.7-46.4-46.4s20.8-46.5 46.4-46.4z"/><path id="path656" class="st2" d="M3159.284 396.807v-92.9c-25.6 0-46.4 20.7-46.4 46.4 0 25.6 20.8 46.4 46.4 46.5z"/><path id="path658" class="st4" d="M3157.284 422.007v-65.1c0-1.2 1-2.1 2.1-2.1 1.2 0 2.1 1 2.1 2.1v65.1c0 1.2-1 2.1-2.1 2.1-1.2 0-2.1-.9-2.1-2.1z"/><path id="path660" class="st4" d="m3157.984 382.207-9.7-9.7c-.8-.8-.8-2.1 0-2.9s2.1-.8 2.9 0l9.7 9.7c.8.8.8 2.1 0 2.9-.4.4-1 .6-1.5.6s-1.1-.2-1.4-.6z"/><path id="path662" class="st4" d="M3157.984 373.707c-.8-.8-.8-2.1 0-2.9l12.8-12.8c.8-.8 2.1-.8 2.9 0 .8.8.8 2.1 0 2.9l-12.8 12.8c-.4.4-1 .6-1.5.6s-1.1-.2-1.4-.6z"/><path id="path694" class="st5" d="M3559.345 517.888c-17.3 0-31.3-14-31.3-31.3 0-47.2 14-125.6 31.3-125.6s31.3 78.4 31.3 125.6c0 17.3-14 31.3-31.3 31.3z"/><path id="path696" class="st6" d="M3559.345 517.888v-156.9c17.3 0 31.3 78.4 31.3 125.6 0 17.3-14 31.3-31.3 31.3z"/><path id="path698" class="st4" d="M3557.245 550.988v-85.1c0-1.2 1-2.1 2.1-2.1 1.2 0 2.1 1 2.1 2.1v85.1c0 1.2-1 2.1-2.1 2.1-1.2 0-2.1-1-2.1-2.1z"/><path id="path700" class="st4" d="m3557.945 498.288-12.6-12.6c-.8-.8-.8-2.1 0-2.9s2.1-.8 2.9 0l12.6 12.7c.8.8.8 2.1 0 2.9-.4.4-1 .6-1.5.6s-1.1-.2-1.4-.7z"/><path id="path702" class="st4" d="M3557.845 487.388c-.8-.8-.8-2.1 0-2.9l16.8-16.8c.8-.8 2.1-.8 2.9 0s.8 2.1 0 2.9l-16.7 16.8c-.4.4-1 .6-1.5.6s-1.1-.2-1.5-.6z"/><path id="path714" class="st1" d="M3404.19 333.387c-19.9 0-29.7-10.3-29.7-22.9 0-34.5 9.8-74.4 29.7-74.4s29.7 39.9 29.7 74.4c0 12.7-9.8 22.9-29.7 22.9z"/><path id="path716" class="st2" d="M3404.19 333.287v-97.2c19.9 0 29.7 39.9 29.7 74.4 0 12.7-9.8 22.9-29.7 22.8z"/><path id="path718" class="st4" d="M3402.09 366.487v-85.1c0-1.2 1-2.1 2.1-2.1 1.2 0 2.1 1 2.1 2.1v85.1c0 1.2-1 2.1-2.1 2.1s-2-.9-2.1-2.1z"/><path id="path720" class="st4" d="m3402.79 313.787-12.6-12.6c-.8-.8-.8-2.1 0-2.9s2.1-.8 2.9 0l12.6 12.7c.8.8.8 2.1 0 2.9-.4.4-1 .6-1.5.6s-1-.2-1.4-.7z"/><path id="path722" class="st4" d="M3402.79 302.887c-.8-.8-.8-2.1 0-2.9l16.8-16.8c.8-.8 2.1-.8 2.9 0 .8.8.8 2.1 0 2.9l-16.8 16.8c-.4.4-1 .6-1.5.6s-1-.2-1.4-.6z"/><path class="st8" d="M2760.214 183h30.457c7.917 0 14.336-6.419 14.336-14.336 0-7.918-6.419-14.336-14.336-14.336h-5.952c-7.918 0-14.336-6.418-14.336-14.336s6.418-14.336 14.336-14.336h133.53c7.918 0 14.336 6.418 14.336 14.336s-6.418 14.336-14.335 14.336h-68.86c-7.918 0-14.336 6.418-14.336 14.336 0 7.917 6.418 14.336 14.336 14.336h158.467c7.918 0 14.336 6.418 14.336 14.336 0 7.917-6.418 14.336-14.336 14.336h-20.979c-.069 0-.136.01-.205.01h-68.86c-7.918 0-14.336 6.418-14.336 14.336 0 7.917 6.418 14.336 14.336 14.336h175.889c7.917 0 14.336 6.418 14.336 14.336 0 7.917-6.419 14.336-14.336 14.336H2828.638c-7.918 0-14.336-6.419-14.336-14.336 0-7.918 6.418-14.336 14.336-14.336h30.456c7.917 0 14.336-6.419 14.336-14.336 0-7.918-6.419-14.336-14.336-14.336h-5.952c-.07 0-.137-.01-.206-.01h-92.722c-7.917 0-14.335-6.419-14.335-14.336 0-7.918 6.418-14.336 14.335-14.336z"/><circle transform="rotate(-45 2717.812 197.34)" class="st8" cx="2717.812" cy="197.341" r="14.336"/><circle transform="rotate(-76.67 2964.995 139.992)" class="st8" cx="2964.995" cy="139.992" r="14.336"/><circle transform="rotate(-80.759 2824.31 70.072)" class="st8" cx="2824.311" cy="70.072" r="14.336"/><circle transform="rotate(-26.471 3149.512 254.319)" class="st8" cx="3149.512" cy="254.319" r="14.336"/><circle class="st8" cx="2905.81" cy="319.886" r="14.336"/><path class="st8" d="M4197.284 119.588H3930.865c-6.962-.555-12.442-6.37-12.442-13.475 0-7.473 6.057-13.53 13.53-13.53h5.618c7.472 0 13.53-6.058 13.53-13.53 0-7.473-6.058-13.53-13.53-13.53h-126.026c-7.473 0-13.53 6.057-13.53 13.53 0 7.472 6.057 13.53 13.53 13.53h64.989c7.473 0 13.53 6.057 13.53 13.53 0 7.472-6.057 13.53-13.53 13.53h-166.003c-7.473 0-13.53 6.058-13.53 13.53 0 7.473 6.057 13.53 13.53 13.53H3960.698c.366 0 .726-.026 1.085-.055h14.08c7.471 0 13.53 6.058 13.53 13.53 0 7.473-6.059 13.53-13.53 13.53H3809.88c-7.472 0-13.53 6.058-13.53 13.53 0 7.473 6.058 13.531 13.53 13.531h38.743c.453.046.912.07 1.377.07H3914.99c7.473 0 13.53 6.057 13.53 13.53 0 7.472-6.057 13.53-13.53 13.53h-166.003c-7.473 0-13.53 6.058-13.53 13.53 0 7.473 6.057 13.53 13.53 13.53h250.166c7.473 0 13.53-6.057 13.53-13.53 0-7.472-6.057-13.53-13.53-13.53h-28.744c-7.473 0-13.53-6.058-13.53-13.53 0-7.473 6.057-13.53 13.53-13.53h5.617c.465 0 .925-.024 1.378-.07h118.866c7.473 0 13.53-6.058 13.53-13.53 0-7.473-6.057-13.53-13.53-13.53h-64.968c-7.472 0-13.53-6.058-13.53-13.53 0-7.473 6.058-13.53 13.53-13.53h165.982"/><circle transform="rotate(-76.112 4067.057 240.353)" class="st8" cx="4067.057" cy="240.353" r="13.531"/><circle transform="rotate(-47.535 3984.09 79.053)" class="st8" cx="3984.091" cy="79.053" r="13.531"/><circle transform="rotate(-76.67 3871.984 13.53)" class="st8" cx="3871.984" cy="13.531" r="13.531"/><circle transform="rotate(-81.192 3879.103 292.554)" class="st8" cx="3879.103" cy="292.555" r="13.531"/><circle transform="rotate(-81.1 3766.565 185.913)" class="st8" cx="3766.565" cy="185.913" r="13.531"/><circle transform="rotate(-45 3615.693 133.768)" class="st8" cx="3615.693" cy="133.768" r="13.531"/><path style="opacity:.5;fill:#2c3e50" d="M0 0h4197.284v633.007H0z"/></svg>